<svg width="171" height="160" viewBox="0 0 171 160" fill="none" xmlns="http://www.w3.org/2000/svg"><path d="M38.56 101.734H5.302l26.13 12.962 7.125-12.962h.001zm93.78-.001h33.307l-26.18 12.962-7.127-12.962z" fill="#7A3B00"/><path d="M85.75 159.105c-1.085 0-2.12-.252-2.918-.709l-5.949-3.409c-.685-.395-1.855-.658-2.902-.658a4.34 4.34 0 0 0-.988.1l-6.669 1.596a5.057 5.057 0 0 1-1.162.132c-1.659 0-3.399-.698-4.433-1.774l-4.748-4.947c-.763-.798-2.468-1.577-3.576-1.631l-6.848-.345c-1.882-.096-4.037-1.479-4.905-3.149l-3.163-6.082c-.511-.984-1.926-2.212-2.972-2.576l-6.47-2.263c-1.78-.619-3.458-2.556-3.818-4.404l-1.317-6.729c-.21-1.085-1.225-2.661-2.124-3.308l-5.572-3.99c-1.531-1.096-2.597-3.425-2.423-5.299l.632-6.826c.104-1.104-.426-2.902-1.108-3.773l-4.223-5.4c-1.164-1.484-1.528-4.018-.83-5.768l2.53-6.369c.407-1.03.407-2.905 0-3.932l-2.53-6.372c-.697-1.747-.33-4.285.829-5.767l4.224-5.402c.682-.87 1.209-2.668 1.108-3.773l-.632-6.824c-.174-1.876.892-4.204 2.423-5.304l5.575-3.994c.9-.647 1.915-2.224 2.125-3.309l1.317-6.728c.364-1.852 2.038-3.785 3.816-4.405l6.476-2.262c1.047-.364 2.46-1.592 2.973-2.576l3.162-6.082c.868-1.673 3.022-3.056 4.905-3.15l6.847-.344c1.105-.054 2.81-.833 3.578-1.635l4.747-4.946c1.033-1.078 2.774-1.771 4.433-1.771.406 0 .798.042 1.162.132L73 4.675c.324.072.656.106.988.102 1.046 0 2.217-.268 2.902-.66L82.84.71C83.638.25 84.673 0 85.758 0c1.081 0 2.116.252 2.914.709l5.948 3.413c.686.395 1.856.658 2.902.658.332.005.664-.029.988-.1l6.669-1.597a5.127 5.127 0 0 1 1.163-.132c1.659 0 3.398.695 4.429 1.771l4.748 4.947c.766.798 2.472 1.577 3.576 1.635l6.848.344c1.882.097 4.034 1.48 4.905 3.15l3.158 6.082c.512.98 1.926 2.208 2.972 2.576l6.472 2.262c1.779.624 3.457 2.557 3.821 4.404l1.317 6.73c.213 1.084 1.225 2.66 2.128 3.308l5.573 3.994c1.534 1.096 2.599 3.428 2.421 5.303l-.627 6.821c-.105 1.1.422 2.902 1.104 3.773l4.224 5.4c1.162 1.484 1.527 4.022.829 5.769l-2.53 6.373c-.411 1.026-.411 2.901 0 3.932l2.53 6.372c.698 1.75.333 4.284-.829 5.768l-4.221 5.4c-.681.872-1.209 2.669-1.107 3.773l.631 6.825c.174 1.875-.891 4.204-2.422 5.304l-5.573 3.99c-.898.647-1.914 2.224-2.123 3.308l-1.317 6.728c-.361 1.849-2.038 3.782-3.817 4.405l-6.476 2.263c-1.042.363-2.46 1.592-2.972 2.575l-3.158 6.082c-.868 1.67-3.022 3.053-4.906 3.15l-6.847.345c-1.104.054-2.81.837-3.577 1.631l-4.747 4.946c-1.031 1.078-2.77 1.775-4.429 1.775-.407 0-.798-.047-1.163-.132l-6.668-1.596a4.378 4.378 0 0 0-.989-.101c-1.05 0-2.216.264-2.906.659l-5.96 3.397c-.795.461-1.833.713-2.914.713z" fill="url(#a)"/><path d="M160.516 81.986c-.534-1.34-.534-3.537 0-4.877l2.527-6.373c.534-1.34.24-3.37-.648-4.505l-4.224-5.4c-.887-1.139-1.507-3.242-1.375-4.68l.631-6.825c.136-1.437-.716-3.3-1.891-4.141l-5.572-3.994c-1.174-.84-2.36-2.685-2.639-4.102l-1.318-6.73c-.275-1.413-1.619-2.963-2.979-3.439l-6.476-2.262c-1.363-.477-3.022-1.914-3.689-3.196l-3.158-6.082c-.662-1.283-2.387-2.39-3.828-2.464l-6.848-.344c-1.442-.074-3.441-.985-4.441-2.027l-4.746-4.946c-1-1.043-2.965-1.62-4.368-1.283l-6.669 1.596c-1.402.337-3.576.024-4.829-.693L88.029 1.81c-1.251-.717-3.3-.717-4.553 0l-5.949 3.41c-1.251.72-3.426 1.03-4.829.693L66.03 4.316c-1.403-.336-3.372.24-4.372 1.283l-4.747 4.946c-1 1.042-2.995 1.953-4.436 2.027l-6.848.344c-1.442.074-3.165 1.181-3.828 2.464l-3.162 6.082c-.663 1.278-2.326 2.716-3.686 3.196l-6.47 2.262c-1.365.473-2.706 2.022-2.985 3.44l-1.317 6.729c-.276 1.417-1.465 3.261-2.64 4.102l-5.572 3.994c-1.174.84-2.026 2.704-1.89 4.14l.63 6.826c.133 1.438-.483 3.541-1.375 4.68l-4.223 5.4c-.888 1.14-1.179 3.165-.648 4.506l2.527 6.373c.535 1.34.535 3.536 0 4.876L8.46 88.36c-.53 1.34-.24 3.37.648 4.505l4.223 5.4c.887 1.135 1.508 3.242 1.376 4.68l-.632 6.825c-.135 1.437.718 3.301 1.891 4.141l5.572 3.994c1.175.841 2.36 2.685 2.64 4.102l1.317 6.726c.275 1.417 1.62 2.963 2.984 3.439l6.471 2.263c1.365.476 3.023 1.914 3.69 3.195l3.162 6.082c.666 1.283 2.39 2.39 3.828 2.46l6.847.345c1.442.073 3.442.984 4.438 2.026l4.747 4.947c1 1.042 2.964 1.619 4.37 1.282l6.67-1.596c1.402-.337 3.576-.023 4.829.693l5.947 3.41c1.252.72 3.301.72 4.553 0l5.949-3.41c1.252-.72 3.425-1.03 4.828-.693l6.669 1.596c1.403.337 3.372-.24 4.367-1.282l4.748-4.947c.999-1.042 2.994-1.953 4.44-2.026l6.847-.345c1.442-.073 3.166-1.182 3.829-2.46l3.159-6.082c.666-1.278 2.324-2.719 3.688-3.195l6.475-2.263c1.365-.476 2.705-2.026 2.981-3.439l1.317-6.726c.279-1.417 1.465-3.261 2.639-4.102l5.572-3.994c1.175-.84 2.027-2.704 1.892-4.141l-.632-6.825c-.136-1.438.484-3.541 1.375-4.68l4.225-5.4c.89-1.14 1.182-3.165.646-4.506l-2.53-6.373v.001z" fill="url(#b)"/><path d="M85.75 19.238c-33.322 0-60.331 27.001-60.331 60.312 0 33.311 27.01 60.311 60.332 60.311 33.317 0 60.33-27 60.33-60.312 0-33.31-27.013-60.311-60.331-60.311zm0 97.295c-20.43 0-36.995-16.557-36.995-36.983 0-20.423 16.562-36.98 36.995-36.98 20.429 0 36.992 16.557 36.992 36.98.003 20.422-16.559 36.983-36.992 36.983z" fill="#000"/><path d="M24.314 100.41l-.383-1.233-1.29-.015 1.049-.748-.383-1.232 1.035.772 1.05-.748-.411 1.224 1.034.77-1.29-.015-.41 1.225zM22.9 95.66l-.291-1.26-1.287-.111 1.109-.663-.287-1.255.973.845 1.108-.663-.507 1.185.973.85-1.287-.114-.504 1.186zm-1.05-4.85l-.19-1.275-1.275-.212 1.154-.578-.19-1.275.904.919 1.154-.578-.596 1.147.907.922-1.275-.213-.594 1.142zm-.674-4.909l-.093-1.285-1.252-.31 1.197-.484-.093-1.286.83.983 1.197-.484-.682 1.096.83.988-1.252-.31-.682 1.093zm-.291-4.942l.008-1.29-1.225-.407 1.228-.391.008-1.29.752 1.046 1.228-.391-.763 1.037.752 1.05-1.225-.402-.763 1.038zm.085-4.954l.105-1.283-1.19-.5 1.255-.298.105-1.286.67 1.1 1.257-.298-.841.98.67 1.104-1.194-.5-.836.98zm.462-4.932l.2-1.275-1.15-.585 1.274-.201.202-1.275.585 1.15 1.275-.2-.914.91.585 1.15-1.151-.585-.907.91zm.836-4.873l.299-1.256-1.1-.67 1.286-.104.298-1.256.5 1.19 1.286-.105-.98.84.5 1.194-1.104-.67-.985.836v.001zm1.206-4.812l.391-1.228-1.046-.751 1.29-.008.39-1.228.408 1.224 1.291-.007-1.043.763.403 1.224-1.046-.756-1.038.767zm1.565-4.695l.484-1.193-.988-.829 1.287.089.484-1.193.314 1.252 1.286.093-1.096.681.31 1.251-.988-.829-1.093.678zm1.918-4.57l.574-1.155-.922-.902 1.275.19.573-1.155.213 1.27 1.279.19-1.144.597.213 1.274-.922-.903-1.14.593zm2.26-4.405l.662-1.108-.849-.973 1.26.287.663-1.108.115 1.287 1.26.286-1.186.507.116 1.287-.848-.973-1.194.508zm2.596-4.227l.744-1.053-.775-1.035 1.231.38.745-1.053.02 1.29 1.231.383-1.22.415.016 1.292-.772-1.033-1.22.414zm2.906-4.009l.822-.992-.69-1.088 1.197.477.822-.992-.081 1.285 1.2.477-1.25.318-.082 1.29-.69-1.089-1.248.314zm3.208-3.777l.9-.926-.605-1.14 1.158.567.895-.926-.178 1.275 1.163.57-1.275.223-.178 1.28-.605-1.14-1.275.217zm3.496-3.525l.965-.856-.516-1.182 1.113.655.965-.856-.275 1.259 1.112.655-1.283.123-.28 1.26-.515-1.182-1.286.124zm3.74-3.23l1.026-.78-.422-1.216 1.058.736 1.026-.778-.371 1.235 1.058.736-1.29.027-.373 1.236-.426-1.22-1.287.023zM49.15 26l1.085-.698-.33-1.247 1 .818 1.085-.698-.465 1.202 1 .817-1.286-.074-.47 1.205-.329-1.248L49.15 26zm4.188-2.63l1.136-.612-.236-1.271.938.888 1.131-.617-.554 1.166.934.887-1.279-.166-.558 1.166-.232-1.271-1.28-.17zm4.392-2.312l1.177-.527-.14-1.283.865.957 1.178-.527-.639 1.12.868.957-1.264-.264-.642 1.12-.14-1.282-1.264-.271zm4.544-1.973l1.214-.437-.04-1.29.791 1.018 1.214-.437-.725 1.065.79 1.018-1.239-.36-.73 1.07-.042-1.29-1.232-.357zm4.674-1.619l1.244-.34.062-1.29.71 1.076 1.243-.34-.806 1.01.71 1.077-1.21-.457-.806 1.007.059-1.29-1.206-.453zm4.802-1.255l1.266-.245.16-1.281.623 1.127 1.268-.244-.88.945.624 1.128-1.17-.546-.885.94.16-1.277-1.167-.547h.001zm4.882-.884l1.282-.147.256-1.262.535 1.173 1.283-.147-.95.871.54 1.175-1.125-.636-.953.872.256-1.263-1.124-.636zm4.925-.503l1.286-.046.353-1.24.446 1.213 1.29-.047-1.015.798.445 1.213-1.073-.72-1.015.797.352-1.24-1.069-.728zm4.956-.128l1.291.051.445-1.21.353 1.244 1.286.051-1.073.717.353 1.243-1.016-.802-1.073.717.446-1.209-1.011-.802h-.001zm4.942.252l1.282.147.539-1.17.256 1.263 1.282.147-1.124.636.256 1.263-.953-.872-1.124.635.534-1.173-.948-.876zm4.913.628l1.267.244.624-1.132.158 1.283 1.264.244-1.166.55.158 1.279-.883-.942-1.17.546.624-1.131-.876-.941zm4.855.999l1.245.34.709-1.08.061 1.287 1.244.34-1.209.457.063 1.29-.807-1.007-1.209.457.709-1.077-.806-1.007zm4.77 1.367l1.214.434.79-1.018-.039 1.29 1.213.433-1.236.365-.038 1.29-.729-1.066-1.24.364.79-1.022-.725-1.07zm4.643 1.72l1.178.528.864-.961-.135 1.282 1.177.523-1.259.268-.135 1.281-.648-1.115-1.263.267.865-.96-.644-1.112zm4.499 2.073l1.135.612.934-.886-.232 1.265 1.136.613-1.28.17-.232 1.271-.558-1.162-1.279.17.934-.89-.558-1.163zm4.336 2.41l1.085.697 1-.814-.33 1.247 1.086.698-1.287.073-.329 1.248-.469-1.201-1.287.074 1.001-.817-.47-1.205zm4.131 2.73l1.027.779 1.058-.736-.422 1.217 1.026.778-1.29-.027-.423 1.22-.371-1.235-1.291-.028 1.058-.736-.372-1.232zm3.91 3.041l.965.856 1.112-.654-.515 1.181.964.856-1.282-.123-.515 1.181-.28-1.263-1.282-.127 1.112-.651-.279-1.256zm3.674 3.336l.895.926 1.158-.566-.605 1.139.896.93-1.267-.225-.609 1.139-.178-1.278-1.275-.225 1.159-.566-.174-1.274zm3.394 3.602l.822.996 1.201-.476-.693 1.088.821.992-1.248-.318-.69 1.089-.081-1.286-1.252-.322 1.202-.473-.082-1.29zm3.116 3.86l.744 1.052 1.232-.383-.771 1.034.744 1.054-1.221-.415-.774 1.035.015-1.29-1.224-.415 1.231-.383.024-1.29zm2.794 4.074l.666 1.104 1.256-.294-.845.976.666 1.103-1.189-.499-.844.977.108-1.287-1.19-.5 1.255-.294.117-1.286zm2.503 4.28l.578 1.155 1.275-.194-.919.907.578 1.154-1.144-.593-.918.907.209-1.275-1.147-.593 1.275-.193.213-1.275zm2.166 4.455l.489 1.193 1.286-.096-.984.833.488 1.193-1.097-.678-.984.832.306-1.255-1.096-.681 1.286-.097.306-1.244zm1.818 4.607l.395 1.227 1.29.004-1.046.755.395 1.229-1.042-.76-1.046.756.403-1.228-1.043-.763 1.291.004.403-1.224zm1.46 4.73l.299 1.255 1.286.104-1.1.674.298 1.255-.98-.836-1.1.674.495-1.193-.98-.841 1.287.1.495-1.193zm1.094 4.834l.201 1.274 1.275.202-1.151.584.202 1.275-.911-.91-1.151.585.585-1.151-.914-.91 1.274.201.59-1.15zm.717 4.904l.104 1.282 1.256.299-1.19.496.105 1.285-.841-.976-1.19.496.671-1.1-.841-.98 1.255.299.671-1.1zm.336 4.94l.005 1.29 1.227.395-1.224.402.004 1.29-.763-1.038-1.225.403.756-1.05-.764-1.042 1.229.395.755-1.045zm-.038 4.958l-.093 1.286 1.197.488-1.251.306-.094 1.286-.681-1.096-1.253.31.834-.988-.682-1.097 1.193.488.83-.983zm-.419 4.935l-.19 1.275 1.155.577-1.275.213-.19 1.274-.597-1.143-1.271.213.907-.922-.597-1.146 1.155.577.903-.918zm-.794 4.884l-.287 1.26 1.108.662-1.286.112-.287 1.26-.508-1.186-1.286.116.972-.848-.507-1.186 1.108.663.973-.853zm-1.162 4.82l-.38 1.232 1.053.744-1.29.015-.384 1.232-.415-1.22-1.29.015 1.035-.771-.415-1.224 1.055.744 1.031-.768zm-1.524 4.706l-.472 1.202.995.82-1.286-.081-.473 1.201-.321-1.247-1.287-.081 1.089-.69-.322-1.251.996.821 1.081-.694zm-1.876 4.587l-.565 1.158.93.895-1.279-.178-.561 1.159-.229-1.271-1.279-.178 1.139-.605-.225-1.27.93.895 1.139-.605zm-2.223 4.436l-.651 1.115.86.965-1.264-.275-.651 1.112-.127-1.283-1.264-.275 1.183-.519-.129-1.286.856.965 1.187-.519zm-2.558 4.246l-.736 1.061.783 1.026-1.236-.372-.733 1.061-.031-1.289-1.237-.372 1.221-.427-.027-1.29.783 1.027 1.213-.425zm-2.868 4.036l-.814.999.702 1.081-1.205-.465-.814 1 .07-1.286-1.206-.465 1.248-.334.07-1.29.701 1.082 1.248-.322zm-3.177 3.808l-.887.937.615 1.131-1.166-.557-.887.937.166-1.278-1.163-.554 1.272-.236.171-1.279.616 1.135 1.263-.236zm-3.453 3.544l-.957.864.527 1.178-1.116-.643-.958.863.268-1.258-1.116-.644 1.282-.135.268-1.263.527 1.178 1.275-.14zm-3.724 3.277l-1.019.787.434 1.212-1.066-.728-1.019.787.36-1.236-1.065-.729 1.29-.038.365-1.24.434 1.216 1.286-.031zm-3.956 2.98l-1.077.708.34 1.243-1.007-.805-1.078.709.454-1.209-1.008-.805 1.29.061.454-1.208.341 1.243 1.291.063zm-4.174 2.668l-1.127.628.244 1.267-.946-.88-1.128.628.543-1.17-.942-.88 1.279.16.546-1.17.245 1.266 1.286.151zm-4.352 2.348l-1.17.539.151 1.281-.875-.949-1.175.539.632-1.124-.876-.949 1.267.252.632-1.123.151 1.282 1.263.252zm-4.534 2.015l-1.209.444.051 1.29-.799-1.01-1.209.449.714-1.073-.799-1.015 1.244.349.717-1.073.051 1.29 1.239.349zm-4.665 1.661l-1.244.353-.046 1.29-.722-1.073-1.239.352.794-1.015-.72-1.073 1.212.446.794-1.015-.046 1.29 1.217.445zm-4.786 1.298l-1.263.255-.148 1.283-.635-1.124-1.267.256.871-.953-.634-1.123 1.173.534.872-.949-.147 1.282 1.178.539zm-4.863.926l-1.279.159-.244 1.266-.546-1.169-1.283.158.941-.879-.546-1.17 1.132.623.941-.878-.244 1.266 1.128.624zm-4.926.549l-1.29.059-.34 1.243-.454-1.208-1.29.057 1.007-.805-.457-1.209 1.081.709 1.007-.805-.34 1.244 1.076.715zm-4.955.171l-1.291-.039-.434 1.213-.365-1.24-1.29-.039 1.066-.727-.364-1.24 1.022.79 1.067-.728-.434 1.212 1.022.798h.001zm-4.945-.205l-1.282-.135-.528 1.177-.267-1.262-1.283-.136 1.116-.647-.267-1.263.957.863 1.12-.643-.528 1.178.962.868zm-4.933-.589l-1.268-.233-.616 1.136-.17-1.278-1.266-.233 1.162-.557-.171-1.28.887.938 1.166-.558-.612 1.136.888.929zm-4.852-.953l-1.248-.329-.696 1.085-.071-1.287-1.248-.329 1.202-.469-.07-1.29.818 1 1.204-.469-.697 1.085.806 1.003zm-4.782-1.321l-1.216-.422-.78 1.026.027-1.29-1.216-.422 1.232-.375.027-1.29.74 1.057 1.237-.372-.779 1.031.728 1.057zm-4.657-1.681l-1.183-.515-.856.964.124-1.282-1.182-.515 1.26-.279.123-1.286.655 1.116 1.26-.279-.856.964.654 1.112h.001zm-4.515-2.03l-1.143-.604-.927.898.222-1.27-1.14-.604 1.276-.182.22-1.271.57 1.158 1.278-.182-.925.899.57 1.158zm-4.356-2.37l-1.088-.687-.992.826.317-1.251-1.092-.69 1.285-.085.319-1.247.476 1.2 1.29-.085-.991.825.476 1.194zm-4.162-2.693l-1.034-.771-1.05.748.41-1.224-1.034-.771 1.29.012.41-1.221.384 1.232 1.291.016-1.054.747.387 1.232zm-3.937-3.002l-.972-.848-1.109.662.504-1.189-.972-.845 1.282.112.504-1.185.29 1.259 1.287.116-1.108.663.294 1.255zm-3.697-3.304l-.902-.919-1.155.578.597-1.143-.903-.918 1.271.213.592-1.147.195 1.278 1.275.214-1.156.577.186 1.267zm-3.429-3.576l-.833-.984-1.194.485.683-1.093-.834-.988 1.252.31.682-1.097.092 1.287 1.253.31-1.198.484.097 1.286zm-3.147-3.823l-.755-1.046-1.228.395.763-1.042-.756-1.046 1.225.403.763-1.042-.004 1.29 1.229.403-1.23.395-.007 1.29zm-2.848-4.056l-.67-1.1-1.256.298.841-.98-.67-1.1 1.19.495.836-.98-.105 1.287 1.194.495-1.255.298-.105 1.287zm-2.535-4.261l-.585-1.147-1.274.205.91-.914-.589-1.147 1.151.582.911-.915-.202 1.274 1.151.585-1.274.206-.198 1.271zm-2.2-4.433l-.5-1.188-1.286.105.976-.841-.5-1.19 1.104.666.977-.844-.295 1.255 1.105.671-1.287.108-.295 1.258z" fill="url(#c)"/><path d="M165.647 58.075H5.303v43.662h160.344V58.075z" fill="url(#d)"/><path d="M169.913 80.063c0 12.268-4.266 20.043-4.266 20.043H5.303s-4.216-7.81-4.216-20.171c0-10.296 4.216-20.229 4.216-20.229h160.344c0-.004 4.266 11.187 4.266 20.357z" fill="url(#e)"/><path d="M90.063 48.656l-2.298 2.235.55 3.161-2.844-1.495-2.837 1.495.543-3.161-2.294-2.235 3.174-.457 1.414-2.878 1.422 2.878 3.17.457zm7.998 2.273l-1.1-2.235-1.1 2.236-2.47.356 1.784 1.74-.424 2.455 2.21-1.161 2.209 1.161-.427-2.456 1.787-1.739-2.469-.356v-.001zm-22.972.133l-1.104-2.24-1.1 2.24-2.465.352 1.778 1.739-.417 2.46 2.204-1.163 2.21 1.162-.427-2.46 1.786-1.739-2.465-.352zm5.794 59.381l2.301-2.239-.55-3.157 2.84 1.495 2.841-1.495-.543 3.157 2.29 2.239-3.168.457-1.42 2.878-1.417-2.878-3.174-.457zm-7.998-2.274l1.1 2.236 1.104-2.236 2.465-.356-1.778-1.739.418-2.456-2.209 1.162-2.204-1.162.426 2.456-1.787 1.739 2.465.356zm22.975-.131l1.1 2.239 1.105-2.239 2.465-.356-1.783-1.74.423-2.456-2.21 1.162-2.209-1.162.427 2.456-1.787 1.74 2.47.356z" fill="#000"/><path d="M61.674 113.422L50.2 122.606l-3.124-3.141c1.306-1.871 2.864-3.924 4.674-6.163-.968.766-3.015 2.332-6.131 4.702l-3.107-3.122 9.238-11.428 2.434 2.444-3.349 3.863-3.239 3.731c1.9-1.705 4.499-3.831 7.8-6.377l2.6 2.611c-.267.337-1.317 1.561-3.142 3.672l-3.666 4.199a135.11 135.11 0 0 1 8.057-6.616l2.429 2.441zm6.557 3.214l-5.227 13.791-3.183-1.739 1.094-2.395-1.112-.607-1.446 2.2-3.22-1.759 8.6-11.95 4.494 2.459zm-6.158 7.341a198 198 0 0 1 2.468-5.644c-1.658 2.282-2.84 3.967-3.54 5.055l1.073.589h-.001zm8.91-6.035l2.417.673c1.612.449 2.686.822 3.22 1.117.535.293.904.762 1.112 1.409.206.647.144 1.573-.193 2.769-.306 1.097-.64 1.795-1 2.1-.36.307-.922.392-1.694.26.629.368 1.016.736 1.163 1.104.148.368.217.682.202.953-.012.268-.178.968-.497 2.104l-1.038 3.71-3.174-.886 1.306-4.676c.21-.752.287-1.236.225-1.445-.062-.21-.325-.383-.798-.515l-1.775 6.345-3.418-.957 3.941-14.065zm2.743 3.361l-.876 3.131c.384.108.67.127.856.058.186-.07.364-.414.539-1.034l.217-.775c.124-.446.132-.759.023-.941-.112-.183-.364-.33-.76-.439zm6.684-.956l2.511.085c1.674.058 2.806.163 3.391.322.589.158 1.058.527 1.414 1.107.353.581.512 1.496.47 2.739-.04 1.136-.198 1.895-.473 2.278-.28.383-.807.597-1.582.651.698.209 1.16.476 1.392.798.232.321.371.612.422.875.05.264.054.985.016 2.162l-.133 3.85-3.293-.112.167-4.849c.027-.783-.016-1.268-.124-1.458-.109-.189-.407-.293-.895-.31l-.226 6.582-3.544-.12.488-14.6h-.001zm3.46 2.619l-.112 3.246c.4.015.682-.035.845-.147.163-.112.256-.489.28-1.131l.027-.802c.015-.466-.051-.771-.202-.918-.147-.151-.427-.233-.837-.248zm12.261-3.726l4.841 13.93-3.557.705-.699-2.538-1.243.249.302 2.619-3.6.712-1.073-14.681 5.03-.996zm-.015 9.58a182.045 182.045 0 0 1-1.724-5.912c.19 2.813.368 4.866.527 6.152l1.197-.24zm10.184-13.616l6.033 13.302-2.832 1.283-4.426-5.288 2.744 6.047-2.701 1.224-6.033-13.302 2.7-1.224 4.53 5.167-2.716-5.989 2.701-1.22zm7.235-5.292l1.759 2.336-1.682 1.266 7.029 9.336-2.836 2.134-7.029-9.331-1.678 1.263-1.76-2.336 6.197-4.668zm6.076-6.904l5.402 8.023 4.018 3.436-2.139 2.498-4.018-3.436-8.708-4.164 2.12-2.475c2.499 1.468 4.146 2.495 4.937 3.088-1.058-1.163-2.302-2.662-3.732-4.495l2.12-2.475zM50.878 35.891l9.382 11.312-3.116 3.211c-1.898-1.266-3.984-2.785-6.258-4.551.782.956 2.383 2.971 4.805 6.051l-3.096 3.196-11.61-9.015 2.425-2.498 3.926 3.277 3.794 3.164c-1.74-1.87-3.91-4.43-6.51-7.689l2.592-2.673c.341.263 1.585 1.287 3.732 3.072l4.266 3.583a132.283 132.283 0 0 1-6.758-7.941l2.426-2.498zm9.9-5.884l8.948 11.73-3.192 1.794-1.454-2.197-1.116.627 1.1 2.394-3.231 1.817-5.565-13.628 4.51-2.537zm2.95 9.115a181.614 181.614 0 0 1-3.484-5.083c1.055 2.619 1.857 4.514 2.406 5.687l1.078-.604zm2.988-11.784l2.442-.697c1.627-.465 2.747-.713 3.359-.744.612-.03 1.178.175 1.697.616.52.442.95 1.263 1.29 2.46.31 1.093.392 1.864.245 2.313-.148.45-.59.817-1.322 1.108.732-.016 1.26.092 1.581.325.322.233.546.469.675.706.127.235.356.917.678 2.052l1.058 3.703-3.201.915-1.333-4.668c-.214-.751-.403-1.202-.566-1.348-.163-.147-.48-.155-.958-.02l1.81 6.334-3.448.984-4.007-14.039zm4.134 1.422l.892 3.122c.387-.113.643-.244.767-.403.123-.159.096-.546-.082-1.161l-.22-.771c-.128-.446-.287-.717-.477-.814-.19-.097-.481-.086-.88.027zm8.855-4.448l2.534-.092c1.69-.063 2.837-.036 3.441.081.605.116 1.105.453 1.504 1.007.4.554.62 1.453.666 2.696.043 1.135-.066 1.906-.317 2.305-.252.4-.768.654-1.55.759.716.163 1.2.391 1.456.698.257.302.42.585.485.844.07.26.124.98.17 2.158l.14 3.85-3.328.12-.179-4.85c-.027-.782-.105-1.262-.229-1.444-.124-.183-.43-.264-.926-.244l.24 6.58-3.58.133-.527-14.6v-.001zm3.674 2.367l.12 3.246c.402-.015.682-.085.841-.205.158-.124.224-.508.2-1.15l-.03-.802c-.015-.461-.105-.763-.268-.902-.163-.14-.452-.202-.863-.187zm15.566-1.018l-.814 14.728-3.597-.71.319-2.614-1.26-.248-.72 2.533-3.636-.716 4.616-13.98 5.092 1.006zm-3.682 8.847c.144-1.658.357-3.7.651-6.125-.898 2.673-1.519 4.637-1.86 5.889l1.21.236zm17.206-3.692l-6.084 13.283-2.856-1.308 1.07-6.814-2.767 6.038-2.725-1.248 6.084-13.282 2.725 1.247-.911 6.819 2.74-5.982 2.724 1.248v-.001zm10.075 7.094l-1.779 2.32-1.689-1.294-7.107 9.275-2.844-2.178 7.106-9.275-1.681-1.289 1.779-2.32 6.215 4.761zm8.371 9.227l-8.82 3.993-4.05 3.402-2.135-2.541 4.05-3.402 5.517-7.925 2.12 2.521c-1.852 2.228-3.134 3.685-3.848 4.37 1.321-.852 3.003-1.828 5.053-2.94l2.113 2.523v-.001z" fill="#fff"/><path d="M26.322 66.56v22.015h4.897v5.509H18.265V66.56h8.057zm15.693 0v27.524H33.96V66.56h8.057zm4.015 0h13.645v5.509h-5.588v5.218h4.975v5.237h-4.976v11.56H46.03V66.56zm16.38 0h13.435v5.509h-5.378v5.218H75.5v5.237h-5.034v6.051h5.914v5.509H62.41V66.56zm32.784 0v5.509h-4.787v22.015h-8.056V72.069h-4.765V66.56h17.608zm10.675 0v27.524h-8.056V66.56h8.056zm28.874 0v27.524h-7.041l-.008-18.584-2.802 18.584h-4.995l-2.956-18.157-.008 18.157h-7.041V66.56h10.424c.31 1.654.627 3.607.957 5.853l1.143 7 1.852-12.854h10.475v.001zm4.019 0h13.434v5.509h-5.378v5.218h5.034v5.237h-5.034v6.051h5.913v5.509h-13.969V66.56z" fill="#000"/><defs><linearGradient id="a" x1="112.92" y1="4.926" x2="58.613" y2="154.182" gradientUnits="userSpaceOnUse"><stop stop-color="#F5B047"/><stop offset="1" stop-color="#FFCF6E"/></linearGradient><linearGradient id="b" x1="112.48" y1="152.964" x2="59.051" y2="6.122" gradientUnits="userSpaceOnUse"><stop stop-color="#DE6E00"/><stop offset="1" stop-color="#FFEB91"/></linearGradient><linearGradient id="c" x1="108.353" y1="141.61" x2="63.179" y2="17.456" gradientUnits="userSpaceOnUse"><stop stop-color="#FFE672"/><stop offset=".616" stop-color="#EDA117"/></linearGradient><linearGradient id="d" x1="5.303" y1="79.904" x2="165.647" y2="79.904" gradientUnits="userSpaceOnUse"><stop stop-color="#B86300"/><stop offset=".335" stop-color="#DE8A00"/><stop offset=".758" stop-color="#FFFFBA"/><stop offset="1" stop-color="#B86300"/></linearGradient><linearGradient id="e" x1="1.087" y1="79.904" x2="169.911" y2="79.904" gradientUnits="userSpaceOnUse"><stop stop-color="#F5B536"/><stop offset=".44" stop-color="#FFEB87"/><stop offset=".582" stop-color="#FFEB87"/><stop offset="1" stop-color="#F5B536"/></linearGradient></defs></svg>